<svg id="svg-source" height="0" version="1.1" 
  xmlns="http://www.w3.org/2000/svg" style="position:absolute; margin-left: -100%" 
  xmlns:xlink="http://www.w3.org/1999/xlink">
  <g id="linkedin" data-iconmelon="Flat Social Icons:01c61d24a0a5319e0d4efae034e4824a">
    <path d="M16,0C7.163,0,0,7.164,0,16s7.163,16,16,16c8.838,0,16-7.164,16-16S24.838,0,16,0z M11.522,22.691H8.403
	v-9.98h3.119V22.691z M9.883,11.463H9.86c-1.129,0-1.86-0.764-1.86-1.73C8,8.748,8.754,8,9.905,8c1.15,0,1.857,0.746,1.88,1.73
	C11.785,10.697,11.056,11.463,9.883,11.463z M24,22.691h-3.537v-5.164c0-1.353-0.552-2.275-1.77-2.275
	c-0.93,0-1.446,0.623-1.688,1.224c-0.09,0.216-0.075,0.515-0.075,0.816v5.399h-3.504c0,0,0.046-9.148,0-9.98h3.504v1.566
	c0.207-0.685,1.326-1.662,3.112-1.662c2.216,0,3.958,1.436,3.958,4.527V22.691z"></path>
  </g>
  <g id="facebook" data-iconmelon="Flat Social Icons:05a5948ba66490483129c2bcdaa481f1">
    <path d="M16,0C7.163,0,0,7.164,0,16c0,8.837,7.163,16,16,16s16-7.163,16-16C32,7.164,24.836,0,16,0z M19.532,13.291
	l-0.184,2.394h-2.454V24h-3.101v-8.315H12.14v-2.394h1.654v-1.608c0-0.708,0.018-1.802,0.533-2.479C14.869,8.487,15.614,8,16.895,8
	c2.087,0,2.965,0.298,2.965,0.298l-0.414,2.451c0,0-0.689-0.2-1.332-0.2c-0.644,0-1.22,0.231-1.22,0.874v1.869H19.532z"></path>
  </g>
  <g id="twitter" data-iconmelon="Flat Social Icons:26b05726b10222fa77dc99e12fd47da2">
    <path d="M16,0C7.164,0,0,7.164,0,16c0,8.837,7.164,16,16,16c8.837,0,16-7.163,16-16C32,7.164,24.837,0,16,0z
	 M22.373,13.511c0.006,0.14,0.009,0.283,0.009,0.425c0,4.346-3.306,9.355-9.355,9.355c-1.856,0-3.585-0.544-5.04-1.477
	c0.257,0.031,0.52,0.045,0.784,0.045c1.54,0,2.958-0.525,4.084-1.408c-1.439-0.025-2.653-0.977-3.071-2.282
	c0.2,0.039,0.406,0.059,0.618,0.059c0.301,0,0.591-0.039,0.866-0.116c-1.505-0.301-2.639-1.63-2.639-3.224v-0.041
	c0.445,0.245,0.952,0.394,1.49,0.411c-0.882-0.59-1.462-1.597-1.462-2.737c0-0.603,0.161-1.167,0.444-1.655
	c1.623,1.991,4.046,3.299,6.778,3.436c-0.058-0.24-0.085-0.491-0.085-0.749c0-1.815,1.472-3.288,3.287-3.288
	c0.946,0,1.802,0.399,2.399,1.038c0.751-0.147,1.454-0.42,2.09-0.797c-0.244,0.768-0.767,1.411-1.446,1.818
	c0.665-0.08,1.299-0.256,1.889-0.518C23.575,12.468,23.016,13.047,22.373,13.511z"></path>
  </g>
  <g id="direction-size2" data-iconmelon="Simple Line Icons:094945f3555b1a1a19c9ecca5388269b">
    <g>
      <path  d="M25.645,14.683c0.152,0,0.298-0.061,0.406-0.169l5.781-5.786c0.224-0.224,0.224-0.586,0-0.812l-5.781-5.785
		c-0.108-0.106-0.254-0.168-0.406-0.168h-9.068V0.608c0-0.316-0.257-0.575-0.574-0.575s-0.574,0.259-0.574,0.575v1.354H0.575
		c-0.232,0-0.442,0.139-0.53,0.354c-0.089,0.217-0.04,0.463,0.124,0.627l5.38,5.379l-5.38,5.381
		c-0.164,0.162-0.213,0.409-0.124,0.627c0.088,0.213,0.298,0.353,0.53,0.353h14.849v2.638H6.356c-0.153,0-0.299,0.061-0.406,0.167
		l-5.781,5.786c-0.224,0.225-0.224,0.587,0,0.812L5.95,29.87c0.107,0.109,0.253,0.169,0.406,0.169h9.067v1.354
		c0,0.315,0.257,0.574,0.575,0.574c0.316,0,0.574-0.259,0.574-0.574v-1.354h14.854c0.232,0,0.442-0.14,0.53-0.356
		c0.088-0.213,0.039-0.459-0.125-0.625l-5.38-5.379l5.38-5.379c0.164-0.163,0.213-0.412,0.125-0.626
		c-0.088-0.216-0.298-0.354-0.53-0.354H16.572v-2.638H25.645z M30.041,18.468l-4.808,4.806c-0.224,0.225-0.224,0.587,0,0.812
		l4.808,4.805H6.593l-5.206-5.212l5.206-5.211H30.041z M1.96,13.533l4.806-4.806c0.224-0.224,0.224-0.586,0-0.812L1.96,3.11h23.447
		l5.207,5.212l-5.207,5.211H1.96z"></path>
    </g>
  </g>
  <g id="tag1" data-iconmelon="Simple Line Icons:7dab9c952ae053da36490e7f16f8d43e">
    <g>
      <path  d="M16,0c-5.06,0-9.176,4.117-9.176,9.176c0,3.539,3.322,10.081,6.292,15.227
		c-3.371,0.541-5.589,1.961-5.589,3.675C7.525,30.313,11.169,32,16,32c4.831,0,8.473-1.687,8.473-3.923
		c0-1.714-2.218-3.134-5.587-3.675c2.967-5.148,6.291-11.693,6.291-15.227C25.176,4.117,21.059,0,16,0z M16,1.173
		c4.415,0,8.003,3.588,8.003,8.003c0,3.623-4.106,11.192-6.557,15.387c-0.591,1.01-1.099,1.842-1.446,2.408
		c-0.346-0.566-0.853-1.398-1.444-2.408c-2.451-4.191-6.562-11.76-6.562-15.387C7.994,4.761,11.585,1.173,16,1.173z M23.301,28.077
		c0,1.304-2.999,2.752-7.302,2.752c-4.304,0-7.304-1.448-7.304-2.752c0-0.972,1.879-2.181,5.042-2.594
		c0.152,0.26,0.28,0.471,0.418,0.702c0.075,0.127,0.155,0.258,0.226,0.379c0.175,0.287,0.322,0.527,0.46,0.756
		c0.044,0.071,0.092,0.15,0.132,0.215c0.151,0.248,0.268,0.436,0.357,0.581c0.009,0.011,0.022,0.035,0.032,0.049
		c0.089,0.144,0.142,0.225,0.142,0.225l0.493,0.779l0.497-0.779c0,0,0.047-0.073,0.134-0.212c0.02-0.032,0.049-0.081,0.075-0.123
		c0.088-0.137,0.19-0.302,0.327-0.527c0.032-0.049,0.068-0.11,0.102-0.162c0.145-0.241,0.306-0.503,0.492-0.812
		c0.063-0.106,0.136-0.229,0.204-0.344c0.142-0.237,0.276-0.459,0.433-0.726C21.425,25.896,23.301,27.105,23.301,28.077z"></path>
      <path  d="M21.741,9.176c0-3.164-2.577-5.738-5.742-5.738s-5.74,2.574-5.74,5.738c0,3.168,2.575,5.745,5.74,5.745
		S21.741,12.344,21.741,9.176z M11.431,9.176c0-2.52,2.05-4.567,4.568-4.567c2.52,0,4.569,2.048,4.569,4.567
		c0,2.521-2.05,4.572-4.569,4.572C13.481,13.748,11.431,11.697,11.431,9.176z"></path>
    </g>
  </g>
  <g id="rotate" data-iconmelon="Simple Line Icons:186dfe5a0455715f8ace47e52e370ef8">
    <g>
      <path  d="M30.328,11.192c-0.125-0.373-0.521-0.576-0.898-0.45c-0.373,0.125-0.576,0.527-0.451,0.898
		c1.672,5,0.424,10.393-3.256,14.078c-5.368,5.356-14.088,5.365-19.442,0c-0.153-0.152-0.247-0.313-0.386-0.475l4.951,0.002
		c0.389,0,0.711-0.318,0.711-0.711c0-0.391-0.322-0.711-0.711-0.711l-6.182-0.002c-0.248-0.206-0.584-0.27-0.852-0.074
		c-0.023,0.02-0.023,0.051-0.043,0.074H3.376v7.469C3.376,31.682,3.697,32,4.088,32c0.389,0,0.711-0.318,0.711-0.709v-5.1
		c0.16,0.176,0.302,0.361,0.475,0.534C8.229,29.679,12.112,31.16,16,31.16c3.88,0,7.768-1.481,10.729-4.435
		C30.789,22.654,32.168,16.703,30.328,11.192z"></path>
      <path  d="M6.283,6.279c5.361-5.36,14.078-5.36,19.439,0c0.156,0.156,0.247,0.314,0.387,0.479l-4.951-0.005
		c-0.391,0-0.709,0.321-0.709,0.714c0,0.389,0.318,0.711,0.709,0.711l6.188,0.002c0.24,0.199,0.572,0.268,0.84,0.074
		c0.024-0.02,0.024-0.055,0.049-0.074h0.389V0.711C28.623,0.317,28.309,0,27.912,0C27.521,0,27.2,0.317,27.2,0.711v5.098
		c-0.156-0.18-0.298-0.359-0.472-0.535c-5.916-5.916-15.537-5.91-21.448,0C1.211,9.34-0.169,15.295,1.675,20.811
		c0.102,0.296,0.376,0.484,0.675,0.484c0.074,0,0.148-0.012,0.223-0.035c0.377-0.125,0.576-0.529,0.451-0.902
		C1.35,15.355,2.6,9.964,6.283,6.279z"></path>
    </g>
  </g>
  <g id="check" data-iconmelon="Simple Line Icons:62e3519b8d1506453144dd389ae63264">
    <g>
      <path  d="M16.29,0.003l-0.296-0.002c-8.659,0-15.832,7.046-15.991,15.708c-0.161,8.822,6.884,16.128,15.707,16.289
		L16.006,32c8.659,0,15.833-7.048,15.991-15.707C32.156,7.471,25.111,0.165,16.29,0.003z M16.006,30.852l-0.276-0.004
		C7.543,30.701,1.002,23.919,1.152,15.731C1.297,7.69,7.958,1.15,15.994,1.15l0.277,0.003c8.186,0.147,14.726,6.929,14.577,15.114
		C30.703,24.311,24.044,30.852,16.006,30.852z"></path>
      <path  d="M22.491,11.622l-7.915,7.632l-4.953-5.138c-0.221-0.229-0.586-0.235-0.812-0.014
		c-0.228,0.219-0.236,0.581-0.016,0.812l5.354,5.55c0.109,0.112,0.251,0.221,0.414,0.176c0.147,0,0.291-0.06,0.398-0.162
		l8.326-8.033c0.229-0.219,0.235-0.582,0.016-0.81C23.082,11.409,22.72,11.403,22.491,11.622z"></path>
    </g>
  </g>
  <g id="heart" data-iconmelon="Simple Line Icons:4d8790feb0398dfc768a4d4d14c15dfc">
    <g>
      <path  d="M21.753,0c-2.078,0-4.056,0.617-5.752,1.787C14.324,0.631,12.297,0,10.253,0
		C7.554,0,5.019,1.051,3.112,2.959C1.2,4.87,0.146,7.413,0.146,10.115c0,2.705,1.054,5.247,2.94,7.131L16.001,32l12.893-14.727
		c3.945-3.946,3.945-10.367,0.002-14.314C26.985,1.051,24.45,0,21.753,0z M28.068,16.499L16.001,30.278L3.913,16.473
		c-1.7-1.697-2.636-3.955-2.636-6.357c0-2.4,0.936-4.658,2.636-6.355c1.691-1.696,3.943-2.629,6.34-2.629
		c1.969,0,3.84,0.627,5.408,1.807l0.34,0.256l0.342-0.255c1.567-1.181,3.438-1.808,5.41-1.808c2.395,0,4.647,0.933,6.342,2.629
		C31.599,7.266,31.599,12.97,28.068,16.499z"></path>
    </g>
  </g>
  <g id="list" data-iconmelon="Simple Line Icons:7ede6f3b3da91a8110905796ea221987">
    <g>
      <path  d="M2.892,13.107C1.298,13.107,0,14.403,0,15.999c0,1.595,1.298,2.894,2.892,2.894
		c1.597,0,2.893-1.299,2.893-2.894C5.784,14.403,4.488,13.107,2.892,13.107z M2.892,17.703c-0.938,0-1.701-0.765-1.701-1.704
		c0-0.94,0.763-1.703,1.701-1.703c0.94,0,1.704,0.763,1.704,1.703C4.596,16.938,3.832,17.703,2.892,17.703z"></path>
      <path  d="M2.892,1.624C1.298,1.624,0,2.921,0,4.515C0,6.11,1.298,7.409,2.892,7.409c1.597,0,2.893-1.299,2.893-2.895
		C5.784,2.921,4.488,1.624,2.892,1.624z M2.892,6.222c-0.938,0-1.701-0.766-1.701-1.707c0-0.939,0.763-1.699,1.701-1.699
		c0.94,0,1.704,0.76,1.704,1.699C4.596,5.456,3.832,6.222,2.892,6.222z"></path>
      <path  d="M2.892,24.589C1.298,24.589,0,25.886,0,27.484c0,1.594,1.298,2.892,2.892,2.892
		c1.597,0,2.893-1.298,2.893-2.892C5.784,25.886,4.488,24.589,2.892,24.589z M2.892,29.187c-0.938,0-1.701-0.764-1.701-1.702
		c0-0.943,0.763-1.706,1.701-1.706c0.94,0,1.704,0.763,1.704,1.706C4.596,28.423,3.832,29.187,2.892,29.187z"></path>
      <path  d="M31.404,26.889H9.78c-0.329,0-0.594,0.269-0.594,0.596c0,0.326,0.265,0.594,0.594,0.594h21.624
		c0.33,0,0.596-0.268,0.596-0.594C32,27.157,31.734,26.889,31.404,26.889z"></path>
      <path  d="M31.404,15.401H9.78c-0.329,0-0.594,0.27-0.594,0.598c0,0.326,0.265,0.592,0.594,0.592h21.624
		c0.33,0,0.596-0.266,0.596-0.592C32,15.671,31.734,15.401,31.404,15.401z"></path>
      <path  d="M31.404,3.92H9.78c-0.329,0-0.594,0.267-0.594,0.595S9.451,5.109,9.78,5.109h21.624
		c0.33,0,0.596-0.267,0.596-0.595S31.734,3.92,31.404,3.92z"></path>
    </g>
  </g>
</svg>